<svg xmlns="http://www.w3.org/2000/svg" width="800" height="400" viewBox="0 0 800 400">
  <rect width="800" height="400" fill="#0d1117" rx="8"/>
  <rect x="1" y="1" width="798" height="398" fill="none" stroke="#30363d" stroke-width="2" rx="8"/>
  <rect x="20" y="20" width="760" height="200" fill="#161b22" rx="6"/>
  <circle cx="45" cy="45" r="8" fill="#d29922"/>
  <circle cx="70" cy="45" r="8" fill="#3fb950"/>
  <circle cx="95" cy="45" r="8" fill="#f85149"/>
  <text x="40" y="120" font-family="monospace" font-size="22" fill="#58a6ff" font-weight="bold">Inventory Management</text>
  <text x="40" y="150" font-family="monospace" font-size="14" fill="#8b949e">Dashboard · Analytics · CRUD</text>
  <rect x="40" y="170" width="80" height="24" rx="4" fill="#58a6ff" opacity="0.2"/>
  <text x="48" y="187" font-family="monospace" font-size="12" fill="#58a6ff">React</text>
  <rect x="130" y="170" width="80" height="24" rx="4" fill="#3fb950" opacity="0.2"/>
  <text x="140" y="187" font-family="monospace" font-size="12" fill="#3fb950">Django</text>
  <rect x="20" y="240" width="760" height="140" fill="#161b22" rx="6"/>
  <rect x="40" y="260" width="180" height="80" fill="#0d1117" rx="4"/>
  <text x="60" y="290" font-family="monospace" font-size="24" fill="#58a6ff">1,247</text>
  <text x="60" y="315" font-family="monospace" font-size="12" fill="#8b949e">Total Products</text>
  <rect x="240" y="260" width="180" height="80" fill="#0d1117" rx="4"/>
  <text x="260" y="290" font-family="monospace" font-size="24" fill="#3fb950">32</text>
  <text x="260" y="315" font-family="monospace" font-size="12" fill="#8b949e">Low Stock</text>
  <rect x="440" y="260" width="180" height="80" fill="#0d1117" rx="4"/>
  <text x="460" y="290" font-family="monospace" font-size="24" fill="#d29922">$84K</text>
  <text x="460" y="315" font-family="monospace" font-size="12" fill="#8b949e">Revenue</text>
  <rect x="640" y="260" width="120" height="80" fill="#0d1117" rx="4"/>
  <text x="660" y="290" font-family="monospace" font-size="24" fill="#818cf8">98%</text>
  <text x="660" y="315" font-family="monospace" font-size="12" fill="#8b949e">Uptime</text>
</svg>
